<svg t="1699866405975" class="icon" viewBox="0 0 1024 1024" version="1.1" xmlns="http://www.w3.org/2000/svg" p-id="7095" width="200" height="200"><path d="M839.545099 67.700415H103.813964C51.112564 67.700415 7.994145 97.558546 7.994145 134.041825c0 36.493272 43.118419 66.34141 95.819819 66.34141h735.731135" fill="#1DCA5D" p-id="7096"></path><path d="M839.545099 0.749451c4.416765 0 7.994145 3.57738 7.994145 7.994145s-3.57738 7.994145-7.994145 7.994145H103.813964C55.389432 16.737741 15.98829 56.138883 15.98829 104.563415s39.401142 87.825675 87.825674 87.825675h735.731135c4.416765 0 7.994145 3.57738 7.994145 7.994145s-3.57738 7.994145-7.994145 7.994145H103.813964C46.575887 208.37738 0 161.811486 0 104.563415S46.575887 0.749451 103.813964 0.749451H388.215662" fill="" p-id="7097"></path><path d="M442.675775 43.71798h34.974384" fill="#1DCA5D" p-id="7098"></path><path d="M477.650159 51.712125h-34.974384c-4.416765 0-7.994145-3.57738-7.994145-7.994145s3.57738-7.994145 7.994145-7.994145h34.974384c4.416765 0 7.994145 3.57738 7.994144 7.994145s-3.57738 7.994145-7.994144 7.994145z" fill="" p-id="7099"></path><path d="M293.125309 43.71798H411.698463" fill="#1DCA5D" p-id="7100"></path><path d="M411.698463 51.712125H293.125309c-4.416765 0-7.994145-3.57738-7.994145-7.994145s3.57738-7.994145 7.994145-7.994145H411.698463c4.416765 0 7.994145 3.57738 7.994145 7.994145s-3.57738 7.994145-7.994145 7.994145z" fill="" p-id="7101"></path><path d="M174.901898 43.71798h79.581713" fill="#1DCA5D" p-id="7102"></path><path d="M254.483611 51.712125h-79.591706c-4.416765 0-7.994145-3.57738-7.994145-7.994145s3.57738-7.994145 7.994145-7.994145h79.591706c4.416765 0 7.994145 3.57738 7.994145 7.994145s-3.57738 7.994145-7.994145 7.994145z" fill="" p-id="7103"></path><path d="M862.168529 364.982679H612.251574V526.954047H1015.256404L914.929885 428.985801l64.352867-64.003122h-72.646792" fill="#1DCA5D" p-id="7104"></path><path d="M959.657126 393.301937c-2.078478 0-4.156955-0.809407-5.715813-2.408236-3.087738-3.157687-3.027782-8.223977 0.129904-11.301722l41.559561-40.590271H906.63596c-4.416765 0-7.994145-3.57738-7.994145-7.994145s3.57738-7.994145 7.994145-7.994145H1015.256404a8.004138 8.004138 0 0 1 7.404577 4.976355c1.2291 3.007797 0.509627 6.465265-1.818668 8.733603l-55.599278 54.30023a7.989149 7.989149 0 0 1-5.585909 2.278331zM1013.257868 534.948192H610.253037c-4.416765 0-7.994145-3.57738-7.994145-7.994145V331.007563c0-4.416765 3.57738-7.994145 7.994145-7.994145h249.916956c4.416765 0 7.994145 3.57738 7.994145 7.994145s-3.57738 7.994145-7.994145 7.994145H618.247182v179.958194h375.38506l-86.286802-84.258287c-1.538873-1.508895-2.408236-3.567387-2.408236-5.715814s0.869363-4.216911 2.408236-5.715813l28.049456-27.389939c3.16768-3.087738 8.223977-3.027782 11.301723 0.129905 3.087738 3.157687 3.027782 8.223977-0.129905 11.301722l-22.193745 21.674125 94.470808 92.252433a7.982154 7.982154 0 0 1 1.818667 8.733603 7.988149 7.988149 0 0 1-7.404576 4.976355z" fill="" p-id="7105"></path><path d="M66.471315 697.089436v195.916507c0 67.930246 55.069666 122.999912 122.999912 122.999912h588.578912c33.965123 0 61.49496-27.529837 61.49496-61.49496V278.85576H150.71961c-46.336062 0-84.248295-21.923942-84.248295-68.260005v329.088968" fill="#FFD632" p-id="7106"></path><path d="M66.821059 217.960361c-0.219839-2.388251-0.359737-4.836458-0.359737-7.364606v7.084811c0.129905 0.099927 0.249817 0.189861 0.359737 0.279795zM816.631881 278.85576v632.666621c0 33.965123-27.529837 61.49496-61.49496 61.49496H166.558009c-38.241991 0-72.41696-17.457214-94.970441-44.83716 15.138912 50.782806 62.184455 87.815682 117.883659 87.815681h588.578912c33.965123 0 61.49496-27.529837 61.49496-61.494959V278.85576h-22.913218z" fill="#FDA738" p-id="7107"></path><path d="M769.596331 1024H147.891681c-81.550271 0-147.891681-66.34141-147.891681-147.891681v-222.836789c0-4.416765 3.57738-7.994145 7.994145-7.994145s7.994145 3.57738 7.994145 7.994145v222.836789c0 72.736726 59.166665 131.903391 131.903391 131.903391h621.70465c34.164977 0 61.954623-27.789646 61.954623-61.954623V209.376648H103.813964c-36.932949 0-69.419156-19.385801-87.825674-48.514467v313.370481c0 4.416765-3.57738 7.994145-7.994145 7.994145s-7.994145-3.57738-7.994145-7.994145V105.562684c0-4.416765 3.57738-7.994145 7.994145-7.994145s7.994145 3.57738 7.994145 7.994145c0 48.424533 39.401142 87.825675 87.825674 87.825674h735.731135c4.416765 0 7.994145 3.57738 7.994145 7.994145v744.674584c0 42.978522-34.964391 77.942913-77.942913 77.942913z" fill="" p-id="7108"></path><path d="M7.994145 539.354965v61.954623" fill="#FFD632" p-id="7109"></path><path d="M7.994145 609.303733c-4.416765 0-7.994145-3.57738-7.994145-7.994145v-61.954623c0-4.416765 3.57738-7.994145 7.994145-7.994145s7.994145 3.57738 7.994145 7.994145v61.954623c0 4.416765-3.57738 7.994145-7.994145 7.994145z" fill="" p-id="7110"></path><path d="M686.417253 930.648373H663.813808v-9.992681l27.949529-0.029978 0.059956 9.992681-5.40604 0.029978z m-30.59759 0h-27.979507v-9.992681h27.979507v9.992681z m-35.973652 0h-27.979507v-9.992681h27.979507v9.992681z m-35.973652 0h-27.979507v-9.992681h27.979507v9.992681z m-35.973652 0h-27.979507v-9.992681h27.979507v9.992681z m-35.973652 0h-27.979507v-9.992681h27.979507v9.992681z m-35.973652 0h-27.979507v-9.992681h27.979507v9.992681z m-35.973652 0h-27.979508v-9.992681h27.979508v9.992681z m-35.973652 0h-27.979508v-9.992681h27.979508v9.992681z m-35.973653 0h-27.979507v-9.992681h27.979507v9.992681z m-35.973652 0h-27.979507v-9.992681h27.979507v9.992681z m-35.973652 0h-27.979507v-9.992681h27.979507v9.992681z m-35.973652 0h-27.979507v-9.992681h27.979507v9.992681z m-35.973652 0h-9.892754c-4.54667 0-9.123318-0.249817-13.610032-0.739459l-4.966363-0.549597 1.089203-9.932725 4.966362 0.549597c4.126977 0.449671 8.333896 0.679502 12.510837 0.679503h9.892754v9.992681z m477.140532-1.52888l-3.087739-9.50304 4.756517-1.538873c5.276136-1.718741 10.142571-4.226904 14.459409-7.45454l3.997073-2.997805 5.985616 8.004138-3.997073 2.997804c-5.196194 3.887153-11.041913 6.904943-17.36728 8.963435l-4.746523 1.528881z m-514.223372-1.388983l-4.826465-1.309041c-6.055565-1.6388-12.00121-3.767241-17.66706-6.325368l-4.556663-2.058492 4.106992-9.103332 4.556663 2.058492a107.611183 107.611183 0 0 0 16.168158 5.785762l4.826465 1.309042-2.60809 9.642937z m-34.77453-13.959776l-4.156955-2.777965c-5.25615-3.517424-10.202527-7.464533-14.699234-11.761386l-3.617351-3.447475 6.89495-7.224708 3.617351 3.447475c4.077014 3.897146 8.57372 7.484518 13.350222 10.682176l4.156955 2.777965-5.545938 8.303918z m581.86383-5.346084l-8.433823-5.356077 2.678039-4.216912c2.917863-4.596633 4.826465-9.582981 5.675843-14.79916l0.799414-4.936385 9.862776 1.598829-0.799414 4.936385c-1.059224 6.565192-3.447475 12.800625-7.094804 18.556408l-2.688031 4.216912z m-610.203074-19.345831l-2.927855-4.047036a97.822353 97.822353 0 0 1-9.553004-16.338033l-2.08847-4.536678 9.083347-4.17694 2.088471 4.536677c2.338287 5.086275 5.226172 10.012667 8.57372 14.659263l2.927856 4.047036-8.104065 5.855711z m620.595463-17.177419h-9.992682v-27.979507h9.992682v27.979507z m-638.082655-16.28807l-1.11918-4.866436a91.802762 91.802762 0 0 1-2.318302-18.836204l-0.089934-4.99634 9.992681-0.179868 0.089934 4.99634c0.099927 5.645865 0.799414 11.29173 2.058492 16.777712l1.119181 4.866436-9.732872 2.23836z m638.082655-19.685582h-9.992682v-27.979507h9.992682v27.979507z m-631.537449-17.10747h-9.992681v-27.979507h9.992681v27.979507z m631.537449-18.866182h-9.992682v-27.979507h9.992682v27.979507z m-631.537449-17.10747h-9.992681v-27.979507h9.992681v27.979507z m631.537449-18.866182h-9.992682v-27.979507h9.992682v27.979507z m-631.537449-17.10747h-9.992681v-27.979507h9.992681v27.979507z m631.537449-18.866182h-9.992682v-27.979507h9.992682v27.979507z m-631.537449-17.10747h-9.992681v-27.979507h9.992681v27.979507z m631.537449-18.866182h-9.992682v-27.979507h9.992682v27.979507z m-631.537449-17.10747h-9.992681v-27.979508h9.992681v27.979508z m631.537449-18.866182h-9.992682v-27.979508h9.992682v27.979508z m-631.537449-17.10747h-9.992681v-27.979508h9.992681v27.979508z m631.537449-18.866182h-9.992682v-27.979508h9.992682v27.979508z m-631.537449-17.107471h-9.992681v-27.979507h9.992681v27.979507z m631.537449-18.866182h-9.992682v-27.979507h9.992682v27.979507z m-631.537449-17.10747h-9.992681v-27.979507h9.992681v27.979507z m631.537449-18.866182h-9.992682v-27.979507h9.992682v27.979507z m-631.537449-17.10747h-9.992681v-27.979507h9.992681v27.979507z m631.537449-18.866182h-9.992682v-27.979507h9.992682v27.979507z m-631.537449-17.10747h-9.992681v-27.979507h9.992681v27.979507z m631.537449-18.866182h-9.992682v-27.979507h9.992682v27.979507z m-631.537449-17.10747h-9.992681v-27.979507h9.992681v27.979507z m631.537449-18.866182h-9.992682v-27.979507h9.992682v27.979507z m-631.537449-17.10747h-9.992681v-27.979507h9.992681v27.979507z m631.537449-18.866182h-9.992682v-27.979507h9.992682v27.979507z m-631.537449-17.10747h-9.992681v-27.979507h9.992681v27.979507z m631.537449-18.866182h-9.992682v-5.046304h-12.940522v-9.992681h17.936863c2.75798 0 4.996341 2.238361 4.996341 4.99634v10.042645z m-30.927349-5.046304h-27.979507v-9.992681h27.979507v9.992681z m-35.973652 0h-27.979507v-9.992681h27.979507v9.992681z m-35.973652 0h-27.979507v-9.992681h27.979507v9.992681z m-35.973652 0h-27.979507v-9.992681h27.979507v9.992681z m-35.973652 0h-27.979507v-9.992681h27.979507v9.992681z m-35.973652 0h-27.979507v-9.992681h27.979507v9.992681z m-35.973652 0h-27.979507v-9.992681h27.979507v9.992681z m-35.973652 0h-27.979508v-9.992681h27.979508v9.992681z m-35.973653 0h-27.979507v-9.992681h27.979507v9.992681z m-35.973652 0h-27.979507v-9.992681h27.979507v9.992681z m-35.973652 0h-27.979507v-9.992681h27.979507v9.992681z m-35.973652 0h-27.979507v-9.992681h27.979507v9.992681z m-35.973652 0h-27.979507v-9.992681h27.979507v9.992681z m-35.973652 0h-27.979507v-9.992681h27.979507v9.992681z m-35.973652 0H180.767602c-6.405309 0-12.780639-0.719473-18.946124-2.128441l-4.876428-1.109188 2.228368-9.742864 4.866436 1.109188a75.343817 75.343817 0 0 0 16.717755 1.868631h29.208607v10.002674z m-61.674828-6.295389l-4.486714-2.208383c-5.805748-2.857907-11.201796-6.375331-16.048246-10.47233l-3.817204-3.227636 6.445279-7.634408 3.817204 3.227636c4.216911 3.567387 8.933457 6.645133 13.999747 9.133311l4.486714 2.208382-4.39678 8.973428z m-35.304143-5.765777h-9.992681v-27.979508h7.634409c-1.37899-2.598097-2.588104-5.266143-3.597366-7.994144h-4.037043v-22.343635a4.996341 4.996341 0 0 1 4.986348-4.996341h0.009993c2.747987 0 4.986348 2.218375 4.99634 4.976355l0.049964 5.605894h-0.049964v6.785031l1.119181-0.369729 1.548865 4.746523c1.688763 5.166216 4.166948 10.132579 7.354614 14.739205l2.847914 4.106992-8.213984 5.685835-2.837922-4.106992a68.759639 68.759639 0 0 1-1.808675-2.75798v23.902494z" fill="#FFFFFF" p-id="7111"></path><path d="M775.791793 1015.83598c0.729466-0.049963 0.839385-0.189861 0.839385-0.949305v-3.487446h-0.85937l-0.049964-0.129905 0.319766-0.249817h0.589568c0-0.499634 0.009993-1.059224 0.099927-1.279063 0.109919-0.249817 0.309773-0.879356 0.899341-1.368997 0.439678-0.369729 0.879356-0.579576 1.279064-0.639532 0.419693 0 0.979283 0.379722 0.979282 0.619546s-0.279795 0.359737-0.359736 0.359737c-0.049963 0-0.099927-0.019985-0.139898-0.079942-0.199854-0.199854-0.589568-0.349744-1.039239-0.349743-0.279795 0-0.519619 0.099927-0.70948 0.29978-0.189861 0.229832-0.4097 0.959297-0.419692 1.878624l-0.009993 0.549598h1.458931c0.019985 0.059956 0.039971 0.109919 0.039971 0.169875 0 0.079941-0.039971 0.179868-0.129905 0.219839h-1.368997v3.487446c0 0.739458 0.099927 0.899341 1.099195 0.96929v0.139897h-2.518156v-0.159882z" fill="" p-id="7112"></path><path d="M781.517599 1010.909588c0.069949-0.019985 0.189861-0.019985 0.309774-0.019986 1.259078 0 2.328295 0.96929 2.328294 2.398244 0 1.668778-1.398975 2.847914-3.007797 2.847914-0.489641 0-1.11918-0.059956-1.688763-0.339751V1009.260795c0-0.769436-0.049963-0.849378-0.85937-0.979282v-0.129905c0.549597-0.059956 1.189129-0.279795 1.438946-0.4097v3.717277l1.478916-0.549597z m-1.478916 3.597365c0 0.199854 0.009993 0.29978 0.069948 0.489641 0.079941 0.289788 0.609554 0.789422 1.478917 0.789422 1.149158 0 1.878624-0.909334 1.878624-2.23836 0-1.239092-0.8194-2.158419-2.038507-2.15842-0.55959 0-1.099195 0.129905-1.388982 0.299781v2.817936zM787.553179 1010.909588c0.069949-0.019985 0.189861-0.019985 0.309773-0.019986 1.259078 0 2.328295 0.96929 2.328295 2.398244 0 1.668778-1.398975 2.847914-3.007797 2.847914-0.489641 0-1.11918-0.059956-1.688763-0.339751V1009.260795c0-0.769436-0.049963-0.849378-0.859371-0.979282v-0.129905c0.549597-0.059956 1.189129-0.279795 1.438946-0.4097v3.717277l1.478917-0.549597z m-1.48891 3.597365c0 0.199854 0.009993 0.29978 0.069949 0.489641 0.079941 0.289788 0.609554 0.789422 1.478917 0.789422 1.149158 0 1.878624-0.909334 1.878624-2.23836 0-1.239092-0.8194-2.158419-2.038507-2.15842-0.55959 0-1.099195 0.129905-1.388983 0.299781v2.817936zM792.869285 1011.689017c0.249817-0.129905 0.499634-0.189861 0.779429-0.189861 1.219107 0 2.058492 1.009261 2.058493 2.148426 0 1.368997-0.919327 2.488178-2.328295 2.488178-1.159151 0-2.228368-1.039239-2.228368-2.847914 0-2.008529 1.189129-4.037043 4.336824-4.666582l0.059956 0.249817c-0.429685 0.069949-0.849378 0.199854-1.299049 0.399707-0.829393 0.359737-1.878624 1.159151-2.288324 2.837921l0.909334-0.419692z m-0.959297 0.70948c-0.049963 0.229832-0.059956 0.499634-0.059956 0.829393 0 1.438946 0.589568 2.648061 1.758712 2.64806 1.139166 0 1.438946-1.099195 1.438946-1.918595 0-0.889349-0.489641-1.978551-1.758712-1.97855-0.499634 0-0.979283 0.179868-1.37899 0.419692zM797.485904 1009.320751c0.349744-0.359737 0.899341-0.599561 1.418961-0.59956 1.009261 0 1.6388 0.649524 1.638799 1.438946 0 0.539605-0.439678 0.899341-1.209114 1.289055v0.019986c1.069217 0.179868 1.668778 0.96929 1.67877 1.82866 0 1.93858-2.178404 2.827929-3.027782 2.827929-0.70948-0.009993-1.219107-0.429685-1.219107-0.669509 0-0.129905 0.25981-0.399707 0.399707-0.399708 0.059956 0 0.129905 0.019985 0.199854 0.069949 0.279795 0.25981 0.589568 0.459663 1.279063 0.459663 0.849378 0 1.698756-0.579576 1.698756-1.858638 0-1.6388-1.319034-1.758712-1.668778-1.758712-0.399707 0-0.729466 0.129905-0.879356 0.189861l-0.079941-0.189861c1.259078-0.419693 2.158419-0.899341 2.158419-1.698756 0-0.659517-0.459663-1.059224-1.149159-1.059224-0.8194 0-1.269071 0.579576-1.488909 0.96929l-0.189861-0.119912 0.439678-0.739459zM805.440078 1008.141615c0.619546-0.079941 1.359005-0.289788 1.588836-0.4097v7.04484c0 0.589568 0.139898 0.70948 0.539605 0.759444l0.429685 0.039971v0.139897c-0.25981 0.049963-0.999268 0.189861-1.548865 0.419693v-0.849378l-0.699488 0.379722c-0.699488 0.369729-1.089202 0.469656-1.239092 0.469656-1.029246 0-2.278331-0.859371-2.278332-2.408236-0.019985-1.568851 1.329027-2.837921 3.147695-2.837922 0.25981 0 0.729466 0.039971 1.059224 0.129905v-1.768704c0-0.8194-0.099927-0.849378-1.019253-0.949305v-0.159883z m1.019254 3.717277c-0.349744-0.429685-0.949305-0.619546-1.578844-0.619546-0.769436 0-1.928587 0.429685-1.928588 2.168412 0 1.368997 0.899341 2.188397 1.968559 2.188397 0.719473-0.009993 1.219107-0.399707 1.548865-0.649524v-3.087739z" fill="" p-id="7113"></path><path d="M775.791793 1015.83598c0.729466-0.049963 0.839385-0.189861 0.839385-0.949305v-3.487446h-0.85937l-0.049964-0.129905 0.319766-0.249817h0.589568c0-0.499634 0.009993-1.059224 0.099927-1.279063 0.109919-0.249817 0.309773-0.879356 0.899341-1.368997 0.439678-0.369729 0.879356-0.579576 1.279064-0.639532 0.419693 0 0.979283 0.379722 0.979282 0.619546s-0.279795 0.359737-0.359736 0.359737c-0.049963 0-0.099927-0.019985-0.139898-0.079942-0.199854-0.199854-0.589568-0.349744-1.039239-0.349743-0.279795 0-0.519619 0.099927-0.70948 0.29978-0.189861 0.229832-0.4097 0.959297-0.419692 1.878624l-0.009993 0.549598h1.458931c0.019985 0.059956 0.039971 0.109919 0.039971 0.169875 0 0.079941-0.039971 0.179868-0.129905 0.219839h-1.368997v3.487446c0 0.739458 0.099927 0.899341 1.099195 0.96929v0.139897h-2.518156v-0.159882z" fill="" p-id="7114"></path><path d="M781.517599 1010.909588c0.069949-0.019985 0.189861-0.019985 0.309774-0.019986 1.259078 0 2.328295 0.96929 2.328294 2.398244 0 1.668778-1.398975 2.847914-3.007797 2.847914-0.489641 0-1.11918-0.059956-1.688763-0.339751V1009.260795c0-0.769436-0.049963-0.849378-0.85937-0.979282v-0.129905c0.549597-0.059956 1.189129-0.279795 1.438946-0.4097v3.717277l1.478916-0.549597z m-1.478916 3.597365c0 0.199854 0.009993 0.29978 0.069948 0.489641 0.079941 0.289788 0.609554 0.789422 1.478917 0.789422 1.149158 0 1.878624-0.909334 1.878624-2.23836 0-1.239092-0.8194-2.158419-2.038507-2.15842-0.55959 0-1.099195 0.129905-1.388982 0.299781v2.817936zM787.553179 1010.909588c0.069949-0.019985 0.189861-0.019985 0.309773-0.019986 1.259078 0 2.328295 0.96929 2.328295 2.398244 0 1.668778-1.398975 2.847914-3.007797 2.847914-0.489641 0-1.11918-0.059956-1.688763-0.339751V1009.260795c0-0.769436-0.049963-0.849378-0.859371-0.979282v-0.129905c0.549597-0.059956 1.189129-0.279795 1.438946-0.4097v3.717277l1.478917-0.549597z m-1.48891 3.597365c0 0.199854 0.009993 0.29978 0.069949 0.489641 0.079941 0.289788 0.609554 0.789422 1.478917 0.789422 1.149158 0 1.878624-0.909334 1.878624-2.23836 0-1.239092-0.8194-2.158419-2.038507-2.15842-0.55959 0-1.099195 0.129905-1.388983 0.299781v2.817936zM792.869285 1011.689017c0.249817-0.129905 0.499634-0.189861 0.779429-0.189861 1.219107 0 2.058492 1.009261 2.058493 2.148426 0 1.368997-0.919327 2.488178-2.328295 2.488178-1.159151 0-2.228368-1.039239-2.228368-2.847914 0-2.008529 1.189129-4.037043 4.336824-4.666582l0.059956 0.249817c-0.429685 0.069949-0.849378 0.199854-1.299049 0.399707-0.829393 0.359737-1.878624 1.159151-2.288324 2.837921l0.909334-0.419692z m-0.959297 0.70948c-0.049963 0.229832-0.059956 0.499634-0.059956 0.829393 0 1.438946 0.589568 2.648061 1.758712 2.64806 1.139166 0 1.438946-1.099195 1.438946-1.918595 0-0.889349-0.489641-1.978551-1.758712-1.97855-0.499634 0-0.979283 0.179868-1.37899 0.419692zM797.485904 1009.320751c0.349744-0.359737 0.899341-0.599561 1.418961-0.59956 1.009261 0 1.6388 0.649524 1.638799 1.438946 0 0.539605-0.439678 0.899341-1.209114 1.289055v0.019986c1.069217 0.179868 1.668778 0.96929 1.67877 1.82866 0 1.93858-2.178404 2.827929-3.027782 2.827929-0.70948-0.009993-1.219107-0.429685-1.219107-0.669509 0-0.129905 0.25981-0.399707 0.399707-0.399708 0.059956 0 0.129905 0.019985 0.199854 0.069949 0.279795 0.25981 0.589568 0.459663 1.279063 0.459663 0.849378 0 1.698756-0.579576 1.698756-1.858638 0-1.6388-1.319034-1.758712-1.668778-1.758712-0.399707 0-0.729466 0.129905-0.879356 0.189861l-0.079941-0.189861c1.259078-0.419693 2.158419-0.899341 2.158419-1.698756 0-0.659517-0.459663-1.059224-1.149159-1.059224-0.8194 0-1.269071 0.579576-1.488909 0.96929l-0.189861-0.119912 0.439678-0.739459zM805.440078 1008.141615c0.619546-0.079941 1.359005-0.289788 1.588836-0.4097v7.04484c0 0.589568 0.139898 0.70948 0.539605 0.759444l0.429685 0.039971v0.139897c-0.25981 0.049963-0.999268 0.189861-1.548865 0.419693v-0.849378l-0.699488 0.379722c-0.699488 0.369729-1.089202 0.469656-1.239092 0.469656-1.029246 0-2.278331-0.859371-2.278332-2.408236-0.019985-1.568851 1.329027-2.837921 3.147695-2.837922 0.25981 0 0.729466 0.039971 1.059224 0.129905v-1.768704c0-0.8194-0.099927-0.849378-1.019253-0.949305v-0.159883z m1.019254 3.717277c-0.349744-0.429685-0.949305-0.619546-1.578844-0.619546-0.769436 0-1.928587 0.429685-1.928588 2.168412 0 1.368997 0.899341 2.188397 1.968559 2.188397 0.719473-0.009993 1.219107-0.399707 1.548865-0.649524v-3.087739z" fill="" p-id="7115"></path><path d="M775.791793 1015.83598c0.729466-0.049963 0.839385-0.189861 0.839385-0.949305v-3.487446h-0.85937l-0.049964-0.129905 0.319766-0.249817h0.589568c0-0.499634 0.009993-1.059224 0.099927-1.279063 0.109919-0.249817 0.309773-0.879356 0.899341-1.368997 0.439678-0.369729 0.879356-0.579576 1.279064-0.639532 0.419693 0 0.979283 0.379722 0.979282 0.619546s-0.279795 0.359737-0.359736 0.359737c-0.049963 0-0.099927-0.019985-0.139898-0.079942-0.199854-0.199854-0.589568-0.349744-1.039239-0.349743-0.279795 0-0.519619 0.099927-0.70948 0.29978-0.189861 0.229832-0.4097 0.959297-0.419692 1.878624l-0.009993 0.549598h1.458931c0.019985 0.059956 0.039971 0.109919 0.039971 0.169875 0 0.079941-0.039971 0.179868-0.129905 0.219839h-1.368997v3.487446c0 0.739458 0.099927 0.899341 1.099195 0.96929v0.139897h-2.518156v-0.159882z" fill="" p-id="7116"></path><path d="M781.517599 1010.909588c0.069949-0.019985 0.189861-0.019985 0.309774-0.019986 1.259078 0 2.328295 0.96929 2.328294 2.398244 0 1.668778-1.398975 2.847914-3.007797 2.847914-0.489641 0-1.11918-0.059956-1.688763-0.339751V1009.260795c0-0.769436-0.049963-0.849378-0.85937-0.979282v-0.129905c0.549597-0.059956 1.189129-0.279795 1.438946-0.4097v3.717277l1.478916-0.549597z m-1.478916 3.597365c0 0.199854 0.009993 0.29978 0.069948 0.489641 0.079941 0.289788 0.609554 0.789422 1.478917 0.789422 1.149158 0 1.878624-0.909334 1.878624-2.23836 0-1.239092-0.8194-2.158419-2.038507-2.15842-0.55959 0-1.099195 0.129905-1.388982 0.299781v2.817936zM787.553179 1010.909588c0.069949-0.019985 0.189861-0.019985 0.309773-0.019986 1.259078 0 2.328295 0.96929 2.328295 2.398244 0 1.668778-1.398975 2.847914-3.007797 2.847914-0.489641 0-1.11918-0.059956-1.688763-0.339751V1009.260795c0-0.769436-0.049963-0.849378-0.859371-0.979282v-0.129905c0.549597-0.059956 1.189129-0.279795 1.438946-0.4097v3.717277l1.478917-0.549597z m-1.48891 3.597365c0 0.199854 0.009993 0.29978 0.069949 0.489641 0.079941 0.289788 0.609554 0.789422 1.478917 0.789422 1.149158 0 1.878624-0.909334 1.878624-2.23836 0-1.239092-0.8194-2.158419-2.038507-2.15842-0.55959 0-1.099195 0.129905-1.388983 0.299781v2.817936zM792.869285 1011.689017c0.249817-0.129905 0.499634-0.189861 0.779429-0.189861 1.219107 0 2.058492 1.009261 2.058493 2.148426 0 1.368997-0.919327 2.488178-2.328295 2.488178-1.159151 0-2.228368-1.039239-2.228368-2.847914 0-2.008529 1.189129-4.037043 4.336824-4.666582l0.059956 0.249817c-0.429685 0.069949-0.849378 0.199854-1.299049 0.399707-0.829393 0.359737-1.878624 1.159151-2.288324 2.837921l0.909334-0.419692z m-0.959297 0.70948c-0.049963 0.229832-0.059956 0.499634-0.059956 0.829393 0 1.438946 0.589568 2.648061 1.758712 2.64806 1.139166 0 1.438946-1.099195 1.438946-1.918595 0-0.889349-0.489641-1.978551-1.758712-1.97855-0.499634 0-0.979283 0.179868-1.37899 0.419692zM797.485904 1009.320751c0.349744-0.359737 0.899341-0.599561 1.418961-0.59956 1.009261 0 1.6388 0.649524 1.638799 1.438946 0 0.539605-0.439678 0.899341-1.209114 1.289055v0.019986c1.069217 0.179868 1.668778 0.96929 1.67877 1.82866 0 1.93858-2.178404 2.827929-3.027782 2.827929-0.70948-0.009993-1.219107-0.429685-1.219107-0.669509 0-0.129905 0.25981-0.399707 0.399707-0.399708 0.059956 0 0.129905 0.019985 0.199854 0.069949 0.279795 0.25981 0.589568 0.459663 1.279063 0.459663 0.849378 0 1.698756-0.579576 1.698756-1.858638 0-1.6388-1.319034-1.758712-1.668778-1.758712-0.399707 0-0.729466 0.129905-0.879356 0.189861l-0.079941-0.189861c1.259078-0.419693 2.158419-0.899341 2.158419-1.698756 0-0.659517-0.459663-1.059224-1.149159-1.059224-0.8194 0-1.269071 0.579576-1.488909 0.96929l-0.189861-0.119912 0.439678-0.739459zM805.440078 1008.141615c0.619546-0.079941 1.359005-0.289788 1.588836-0.4097v7.04484c0 0.589568 0.139898 0.70948 0.539605 0.759444l0.429685 0.039971v0.139897c-0.25981 0.049963-0.999268 0.189861-1.548865 0.419693v-0.849378l-0.699488 0.379722c-0.699488 0.369729-1.089202 0.469656-1.239092 0.469656-1.029246 0-2.278331-0.859371-2.278332-2.408236-0.019985-1.568851 1.329027-2.837921 3.147695-2.837922 0.25981 0 0.729466 0.039971 1.059224 0.129905v-1.768704c0-0.8194-0.099927-0.849378-1.019253-0.949305v-0.159883z m1.019254 3.717277c-0.349744-0.429685-0.949305-0.619546-1.578844-0.619546-0.769436 0-1.928587 0.429685-1.928588 2.168412 0 1.368997 0.899341 2.188397 1.968559 2.188397 0.719473-0.009993 1.219107-0.399707 1.548865-0.649524v-3.087739z" fill="" p-id="7117"></path><path d="M775.791793 1015.83598c0.729466-0.049963 0.839385-0.189861 0.839385-0.949305v-3.487446h-0.85937l-0.049964-0.129905 0.319766-0.249817h0.589568c0-0.499634 0.009993-1.059224 0.099927-1.279063 0.109919-0.249817 0.309773-0.879356 0.899341-1.368997 0.439678-0.369729 0.879356-0.579576 1.279064-0.639532 0.419693 0 0.979283 0.379722 0.979282 0.619546s-0.279795 0.359737-0.359736 0.359737c-0.049963 0-0.099927-0.019985-0.139898-0.079942-0.199854-0.199854-0.589568-0.349744-1.039239-0.349743-0.279795 0-0.519619 0.099927-0.70948 0.29978-0.189861 0.229832-0.4097 0.959297-0.419692 1.878624l-0.009993 0.549598h1.458931c0.019985 0.059956 0.039971 0.109919 0.039971 0.169875 0 0.079941-0.039971 0.179868-0.129905 0.219839h-1.368997v3.487446c0 0.739458 0.099927 0.899341 1.099195 0.96929v0.139897h-2.518156v-0.159882z" fill="" p-id="7118"></path><path d="M781.517599 1010.909588c0.069949-0.019985 0.189861-0.019985 0.309774-0.019986 1.259078 0 2.328295 0.96929 2.328294 2.398244 0 1.668778-1.398975 2.847914-3.007797 2.847914-0.489641 0-1.11918-0.059956-1.688763-0.339751V1009.260795c0-0.769436-0.049963-0.849378-0.85937-0.979282v-0.129905c0.549597-0.059956 1.189129-0.279795 1.438946-0.4097v3.717277l1.478916-0.549597z m-1.478916 3.597365c0 0.199854 0.009993 0.29978 0.069948 0.489641 0.079941 0.289788 0.609554 0.789422 1.478917 0.789422 1.149158 0 1.878624-0.909334 1.878624-2.23836 0-1.239092-0.8194-2.158419-2.038507-2.15842-0.55959 0-1.099195 0.129905-1.388982 0.299781v2.817936zM787.553179 1010.909588c0.069949-0.019985 0.189861-0.019985 0.309773-0.019986 1.259078 0 2.328295 0.96929 2.328295 2.398244 0 1.668778-1.398975 2.847914-3.007797 2.847914-0.489641 0-1.11918-0.059956-1.688763-0.339751V1009.260795c0-0.769436-0.049963-0.849378-0.859371-0.979282v-0.129905c0.549597-0.059956 1.189129-0.279795 1.438946-0.4097v3.717277l1.478917-0.549597z m-1.48891 3.597365c0 0.199854 0.009993 0.29978 0.069949 0.489641 0.079941 0.289788 0.609554 0.789422 1.478917 0.789422 1.149158 0 1.878624-0.909334 1.878624-2.23836 0-1.239092-0.8194-2.158419-2.038507-2.15842-0.55959 0-1.099195 0.129905-1.388983 0.299781v2.817936zM792.869285 1011.689017c0.249817-0.129905 0.499634-0.189861 0.779429-0.189861 1.219107 0 2.058492 1.009261 2.058493 2.148426 0 1.368997-0.919327 2.488178-2.328295 2.488178-1.159151 0-2.228368-1.039239-2.228368-2.847914 0-2.008529 1.189129-4.037043 4.336824-4.666582l0.059956 0.249817c-0.429685 0.069949-0.849378 0.199854-1.299049 0.399707-0.829393 0.359737-1.878624 1.159151-2.288324 2.837921l0.909334-0.419692z m-0.959297 0.70948c-0.049963 0.229832-0.059956 0.499634-0.059956 0.829393 0 1.438946 0.589568 2.648061 1.758712 2.64806 1.139166 0 1.438946-1.099195 1.438946-1.918595 0-0.889349-0.489641-1.978551-1.758712-1.97855-0.499634 0-0.979283 0.179868-1.37899 0.419692zM797.485904 1009.320751c0.349744-0.359737 0.899341-0.599561 1.418961-0.59956 1.009261 0 1.6388 0.649524 1.638799 1.438946 0 0.539605-0.439678 0.899341-1.209114 1.289055v0.019986c1.069217 0.179868 1.668778 0.96929 1.67877 1.82866 0 1.93858-2.178404 2.827929-3.027782 2.827929-0.70948-0.009993-1.219107-0.429685-1.219107-0.669509 0-0.129905 0.25981-0.399707 0.399707-0.399708 0.059956 0 0.129905 0.019985 0.199854 0.069949 0.279795 0.25981 0.589568 0.459663 1.279063 0.459663 0.849378 0 1.698756-0.579576 1.698756-1.858638 0-1.6388-1.319034-1.758712-1.668778-1.758712-0.399707 0-0.729466 0.129905-0.879356 0.189861l-0.079941-0.189861c1.259078-0.419693 2.158419-0.899341 2.158419-1.698756 0-0.659517-0.459663-1.059224-1.149159-1.059224-0.8194 0-1.269071 0.579576-1.488909 0.96929l-0.189861-0.119912 0.439678-0.739459zM805.440078 1008.141615c0.619546-0.079941 1.359005-0.289788 1.588836-0.4097v7.04484c0 0.589568 0.139898 0.70948 0.539605 0.759444l0.429685 0.039971v0.139897c-0.25981 0.049963-0.999268 0.189861-1.548865 0.419693v-0.849378l-0.699488 0.379722c-0.699488 0.369729-1.089202 0.469656-1.239092 0.469656-1.029246 0-2.278331-0.859371-2.278332-2.408236-0.019985-1.568851 1.329027-2.837921 3.147695-2.837922 0.25981 0 0.729466 0.039971 1.059224 0.129905v-1.768704c0-0.8194-0.099927-0.849378-1.019253-0.949305v-0.159883z m1.019254 3.717277c-0.349744-0.429685-0.949305-0.619546-1.578844-0.619546-0.769436 0-1.928587 0.429685-1.928588 2.168412 0 1.368997 0.899341 2.188397 1.968559 2.188397 0.719473-0.009993 1.219107-0.399707 1.548865-0.649524v-3.087739z" fill="" p-id="7119"></path><path d="M641.660034 520.958439c8.893486-8.893486 8.893486-23.44283 0-32.336317-8.893486-8.893486-23.44283-8.893486-32.336316 0l-80.84079 80.840791-80.840791-80.840791c-8.893486-8.893486-23.44283-8.893486-32.336316 0-8.893486 8.893486-8.893486 23.44283 0 32.336317l90.313852 90.313852v31.846675H417.594145c-12.580786 0-22.863254 10.292462-22.863255 22.863254 0 12.580786 10.292462 22.863254 22.863255 22.863255h88.025528v26.570539H417.594145c-12.580786 0-22.863254 10.292462-22.863255 22.863254s10.292462 22.863254 22.863255 22.863255h88.025528v51.272447c0 12.580786 10.292462 22.863254 22.863255 22.863254 12.580786 0 22.863254-10.292462 22.863254-22.863254V761.142523h88.025528c12.580786 0 22.863254-10.292462 22.863255-22.863255s-10.292462-22.863254-22.863255-22.863254h-88.025528v-26.570539h88.025528c12.580786 0 22.863254-10.292462 22.863255-22.863255 0-12.580786-10.292462-22.863254-22.863255-22.863254h-88.025528v-31.846675l90.313852-90.313852z" fill="#1DCA5D" p-id="7120"></path><path d="M528.472935 843.302347c-17.017536 0-30.857399-13.839863-30.8574-30.857399v-43.278302h-80.031383c-17.017536 0-30.857399-13.839863-30.857399-30.8574s13.839863-30.857399 30.857399-30.857399h80.031383v-10.58225h-80.031383c-17.017536 0-30.857399-13.839863-30.857399-30.857399s13.839863-30.857399 30.857399-30.857399h80.031383v-20.544953l-87.975564-87.975564c-12.031188-12.031188-12.031188-31.60685 0-43.648032 12.031188-12.031188 31.616843-12.031188 43.648031 0l75.194926 75.194926 75.194925-75.194926c5.81574-5.81574 13.560068-9.013398 21.824016-9.013398s16.008275 3.197658 21.824015 9.013398c5.81574 5.805748 9.013398 13.560068 9.013399 21.824016s-3.197658 16.008275-9.013399 21.824016l-87.975564 87.975564v20.544953h80.031383c17.017536 0 30.857399 13.839863 30.857399 30.857399s-13.839863 30.857399-30.857399 30.857399h-80.031383v10.58225h80.031383c17.017536 0 30.857399 13.839863 30.857399 30.857399s-13.839863 30.857399-30.857399 30.8574h-80.031383v43.278302c-0.009993 17.007543-13.859849 30.857399-30.877385 30.857399zM417.57416 723.420151c-8.203991 0-14.86911 6.675111-14.86911 14.86911s6.675111 14.86911 14.86911 14.869109h96.019673v59.266592c0 8.203991 6.675111 14.86911 14.869109 14.86911s14.86911-6.675111 14.86911-14.86911v-59.266592h96.019673c8.203991 0 14.86911-6.675111 14.869109-14.869109s-6.675111-14.86911-14.869109-14.86911h-96.019673v-42.558829h96.019673c8.203991 0 14.86911-6.675111 14.869109-14.869109s-6.675111-14.86911-14.869109-14.86911h-96.019673v-43.168382l92.662132-92.662133c2.787958-2.787958 4.326831-6.525221 4.326831-10.5123 0-3.98708-1.538873-7.724343-4.326831-10.512301-2.787958-2.787958-6.525221-4.326831-10.512301-4.326831-3.98708 0-7.724343 1.538873-10.5123 4.326831l-86.496648 86.496648-86.496648-86.496648c-5.795755-5.795755-15.238839-5.795755-21.034594 0-5.795755 5.795755-5.795755 15.238839 0 21.034594l92.662132 92.662132v43.15839h-96.019673c-8.203991 0-14.86911 6.675111-14.869109 14.86911s6.675111 14.86911 14.869109 14.869109h96.019673v42.558829h-96.029665z" fill="" p-id="7121"></path></svg>